<svg width="150.000000" height="90.000000" viewBox="0 0 200 200" fill="none" xmlns="http://www.w3.org/2000/svg" xmlns:xlink="http://www.w3.org/1999/xlink">
                    <desc>
                            Created with Pixso.
                    </desc>
                    <g clip-path="url(#clip2_241)">
                        <path d="M98.0047 45.9448C92.2039 43.8942 88.2783 38.3864 88.2783 32.234C88.3957 31.2377 87.9267 30.4176 87.165 29.7145C86.5204 29.187 85.5245 28.9528 84.7042 29.0698C79.7822 29.7729 75.0948 28.3667 71.5206 25.4956C67.9464 22.6245 65.4267 18.2887 65.0167 13.2496C64.9581 12.3705 64.4306 11.5502 63.6689 11.0231C62.9071 10.5541 61.9698 10.4369 61.0907 10.7885C53.1219 13.6596 45.6219 8.62052 42.6339 1.76523C42.0477 0.475975 40.7001 -0.227158 39.294 0.0662079C28.0438 2.58574 17.9266 9.64825 11.0127 18.5547C-4.98323 39.1212 -3.3428 67.4222 14.5869 85.4105C34.0989 104.863 65.5636 104.863 85.017 85.4105C94.0402 76.3869 99.9974 63.5232 99.9974 49.8124C99.8797 47.8786 99.8211 46.5897 98.0047 45.9448Z" fill-rule="evenodd" fill="#FEA832"/>
                        <path d="M99.9969 49.8122C99.9969 63.523 94.0399 76.3867 85.0164 85.4103C65.5632 104.863 34.0983 104.863 14.5864 85.4103L71.5203 25.4955C75.0945 28.3666 79.7818 29.7727 84.7039 29.0698C85.5242 28.9528 86.5203 29.1871 87.1646 29.7145C87.9263 30.4176 88.3953 31.2375 88.2779 32.234C88.2779 38.3864 92.2035 43.8942 98.0043 45.9448C99.8211 46.5897 99.8797 47.8786 99.9969 49.8122Z" fill-rule="evenodd" fill="#FE9923"/>
                        <path d="M37.7899 61.0351C36.3251 59.7462 34.3327 58.9845 32.2235 58.9845C27.36 58.9845 23.4344 62.9101 23.4344 67.7736C23.4344 70.0587 24.3135 72.1095 25.7196 73.633C27.3015 75.4494 29.6452 76.5627 32.2235 76.5627C37.087 76.5627 41.0126 72.6367 41.0126 67.7736C41.0124 65.0195 39.782 62.6173 37.7899 61.0351Z" fill-rule="evenodd" fill="#994C0F"/>
                        <path d="M61.5202 58.9845C56.6737 58.9845 52.7311 55.0419 52.7311 50.1954C52.7311 45.3489 56.6737 41.4063 61.5202 41.4063C66.3667 41.4063 70.3093 45.3489 70.3093 50.1954C70.3093 55.0419 66.3669 58.9845 61.5202 58.9845ZM58.5905 82.422C55.3604 82.422 52.7311 79.7927 52.7311 76.5626C52.7311 73.3326 55.3604 70.7032 58.5905 70.7032C61.8206 70.7032 64.4499 73.3326 64.4499 76.5626C64.4499 79.7927 61.8206 82.422 58.5905 82.422Z" fill-rule="evenodd" fill="#713708"/>
                        <path d="M35.153 41.4063C31.9229 41.4063 29.2936 38.777 29.2936 35.547C29.2936 32.3169 31.9229 29.6876 35.153 29.6876C38.3831 29.6876 41.0124 32.3169 41.0124 35.547C41.0124 38.777 38.3831 41.4063 35.153 41.4063Z" fill-rule="evenodd" fill="#994C0F"/>
                        <path d="M76.0232 62.1349C76.0232 62.9439 76.3092 63.6344 76.8813 64.2065C77.4533 64.7786 78.1439 65.0646 78.9529 65.0646C79.7619 65.0646 80.4524 64.7786 81.0245 64.2065C81.5966 63.6344 81.8826 62.9439 81.8826 62.1349C81.8826 61.3259 81.5966 60.6353 81.0245 60.0633C80.4524 59.4912 79.7619 59.2052 78.9529 59.2052C78.1439 59.2052 77.4533 59.4912 76.8813 60.0633C76.3092 60.6353 76.0232 61.3259 76.0232 62.1349Z" fill-rule="evenodd" fill="#713708"/>
                        <path d="M17.4274 50.4161C17.4274 51.2252 17.7134 51.9157 18.2855 52.4877C18.8575 53.0598 19.548 53.3458 20.3571 53.3458C21.1661 53.3458 21.8566 53.0598 22.4287 52.4877C23.0007 51.9157 23.2867 51.2252 23.2867 50.4161C23.2867 49.6071 23.0007 48.9166 22.4287 48.3445C21.8566 47.7725 21.1661 47.4865 20.3571 47.4865C19.548 47.4865 18.8575 47.7725 18.2855 48.3445C17.7134 48.9166 17.4274 49.6071 17.4274 50.4161Z" fill-rule="evenodd" fill="#994C0F"/>
                        <path d="M41.0124 67.7736C41.0124 72.6367 37.0868 76.5627 32.2233 76.5627C29.6451 76.5627 27.3012 75.4494 25.7194 73.633L37.7897 61.0351C39.7819 62.6173 41.0124 65.0195 41.0124 67.7736Z" fill-rule="evenodd" fill="#713708"/>
                    </g>
                    
                    <defs>
                        <clipPath id="clip2_241">
                            <rect width="100.000000" height="100.000000" fill="white"/>
                        </clipPath>
                    </defs>
                    <text x="25%" y="60%" font-size="30" fill="#FE9923" font-family="system-ui, sans-serif" text-anchor="middle" dominant-baseline="middle">SuperCookie</text>
</svg>
