<svg width="70.000000" height="70.000000" viewBox="0 0 100 100" fill="none" xmlns="http://www.w3.org/2000/svg" xmlns:xlink="http://www.w3.org/1999/xlink">
	<desc>
			Created with Pixso.
	</desc>
	<g clip-path="url(#clip2_272)">
		<path d="M50.7576 56.0606C62.0561 56.0606 71.2121 46.5636 71.2121 34.8485C71.2121 23.1333 62.05 13.6364 50.7576 13.6364C39.4652 13.6364 30.303 23.1333 30.303 34.8485C30.303 46.5636 39.4591 56.0606 50.7576 56.0606ZM50.7576 17.1318C60.1455 17.1318 67.7773 25.0803 67.7773 34.8485C67.7773 44.6166 60.1379 52.5651 50.7576 52.5651C41.3773 52.5651 33.7303 44.6166 33.7303 34.8485C33.7303 25.0803 41.3697 17.1318 50.7576 17.1318Z" fill-rule="evenodd" fill="#333333"/>
		<path d="M50.7606 16.6667C60.3697 16.6667 68.1818 24.8242 68.1818 34.8485C68.1818 44.8727 60.3636 53.0303 50.7606 53.0303C41.1591 53.0303 33.3333 44.8727 33.3333 34.8485C33.3333 24.8242 41.1515 16.6667 50.7606 16.6667Z" fill-rule="evenodd" fill="#F8D02D"/>
		<path d="M50 59.0909C34.9606 59.0909 22.7273 71.3273 22.7273 86.35L26.2318 86.3637C26.2318 73.3182 36.8955 62.6773 50 62.6773C63.1061 62.6773 73.7682 72.5182 73.7682 86.3091L77.2728 86.3091C77.2728 70.7697 65.0394 59.0909 50 59.0909ZM57.1985 41.1516C55.2858 42.5684 53.1394 43.2704 50.7591 43.2576C48.3789 43.2704 46.2324 42.5684 44.3197 41.1516C44.1037 40.9899 43.8607 40.9091 43.5909 40.9091C42.4894 40.9091 42 42.2273 42.8697 42.8697C45.2128 44.6049 47.842 45.4665 50.7576 45.4546C53.6737 45.4667 56.3035 44.6051 58.647 42.8697C59.5106 42.2273 59.0258 40.9091 57.9258 40.9091C57.6565 40.9095 57.4141 40.9903 57.1985 41.1516Z" fill-rule="evenodd" fill="#333333"/>
	</g>
	<defs>
		<clipPath id="clip2_272">
			<rect width="100.000000" height="100.000000" fill="white"/>
		</clipPath>
	</defs>
</svg>
